<svg viewBox="0 0 1450 800" width="1450" height="800" xmlns="http://www.w3.org/2000/svg" role="img" aria-label="STEACH 백엔드 아키텍처: Client, API Gateway, FastAPI Application(Presentation/Service/Domain/Persistence), External Resources 및 배포 인프라 4단 구조">
<title>STEACH — Python + FastAPI Backend Architecture</title>
<defs>
  <marker id="m3" viewBox="0 0 10 10" refX="8" refY="5" markerWidth="7" markerHeight="7" orient="auto-start-reverse">
    <path d="M0,0 L10,5 L0,10 z" fill="#1c3a52"/>
  </marker>
</defs>

<rect width="1450" height="800" fill="#eef3f9"/>
<rect x="0" y="0" width="1450" height="50" fill="#1c3a52"/>
<text x="725" y="32" text-anchor="middle" font-family="-apple-system,'Segoe UI',sans-serif" font-size="19" font-weight="700" letter-spacing="0.5" fill="#ffffff">STEACH — PYTHON + FASTAPI BACKEND ARCHITECTURE</text>

<!-- ===================== CLIENT LAYER ===================== -->
<rect x="16" y="64" width="150" height="636" rx="6" fill="#eef0fb" stroke="#1c3a52" stroke-width="1.5"/>
<rect x="16" y="64" width="150" height="30" rx="6" fill="#d7ddf5"/>
<rect x="16" y="86" width="150" height="8" fill="#d7ddf5"/>
<text x="91" y="84" text-anchor="middle" font-family="-apple-system,sans-serif" font-size="11" font-weight="700" fill="#1c3a52">CLIENT LAYER</text>

<g transform="translate(67,140)">
  <rect width="48" height="48" rx="9" fill="#64748b"/>
  <rect x="9" y="10" width="30" height="21" rx="2" fill="none" stroke="#ffffff" stroke-width="2.4"/>
  <line x1="24" y1="31" x2="24" y2="37" stroke="#ffffff" stroke-width="2.4"/>
  <line x1="18" y1="37" x2="30" y2="37" stroke="#ffffff" stroke-width="2.4"/>
</g>
<text x="91" y="212" text-anchor="middle" font-family="-apple-system,sans-serif" font-size="10.5" font-weight="700" fill="#1c3a52">WEB BROWSER</text>
<text x="91" y="226" text-anchor="middle" font-family="-apple-system,sans-serif" font-size="9.5" fill="#55677a">인터뷰 연습 UI</text>

<g transform="translate(67,290)">
  <rect width="48" height="48" rx="9" fill="#64748b"/>
  <rect x="18" y="10" width="12" height="20" rx="6" fill="none" stroke="#ffffff" stroke-width="2.2"/>
  <path d="M13,26 A11,11 0 0 0 35,26" fill="none" stroke="#ffffff" stroke-width="2.2"/>
  <line x1="24" y1="37" x2="24" y2="41" stroke="#ffffff" stroke-width="2.2"/>
</g>
<text x="91" y="362" text-anchor="middle" font-family="-apple-system,sans-serif" font-size="10.5" font-weight="700" fill="#1c3a52">음성 녹음</text>
<text x="91" y="376" text-anchor="middle" font-family="-apple-system,sans-serif" font-size="9.5" fill="#55677a">인터뷰/발표 답변</text>

<!-- ===================== API GATEWAY ===================== -->
<rect x="184" y="64" width="150" height="636" rx="6" fill="#eef0fb" stroke="#1c3a52" stroke-width="1.5"/>
<rect x="184" y="64" width="150" height="30" rx="6" fill="#d7ddf5"/>
<rect x="184" y="86" width="150" height="8" fill="#d7ddf5"/>
<text x="259" y="79" text-anchor="middle" font-family="-apple-system,sans-serif" font-size="10.5" font-weight="700" fill="#1c3a52">API GATEWAY /</text>
<text x="259" y="91" text-anchor="middle" font-family="-apple-system,sans-serif" font-size="10.5" font-weight="700" fill="#1c3a52">ENTRY POINT</text>

<g transform="translate(219,150)">
  <rect width="80" height="80" rx="14" fill="#3e9b52"/>
  <g fill="none" stroke="#ffffff" stroke-width="3">
    <circle cx="40" cy="40" r="14"/>
    <circle cx="40" cy="40" r="4" fill="#ffffff"/>
  </g>
  <g fill="#ffffff" stroke="none">
    <rect x="37" y="6" width="6" height="9"/><rect x="37" y="65" width="6" height="9"/>
    <rect x="6" y="37" width="9" height="6"/><rect x="65" y="37" width="9" height="6"/>
    <rect x="12" y="12" width="8" height="6" transform="rotate(45 16 15)"/>
    <rect x="60" y="12" width="8" height="6" transform="rotate(-45 64 15)"/>
    <rect x="12" y="62" width="8" height="6" transform="rotate(-45 16 65)"/>
    <rect x="60" y="62" width="8" height="6" transform="rotate(45 64 65)"/>
  </g>
</g>
<text x="259" y="252" text-anchor="middle" font-family="-apple-system,sans-serif" font-size="11" font-weight="700" fill="#1c3a52">Auth / Proxy</text>
<text x="259" y="266" text-anchor="middle" font-family="-apple-system,sans-serif" font-size="11" font-weight="700" fill="#1c3a52">Middleware</text>
<text x="259" y="288" text-anchor="middle" font-family="-apple-system,sans-serif" font-size="9.5" fill="#55677a">JWT(Access/Refresh)</text>
<text x="259" y="301" text-anchor="middle" font-family="-apple-system,sans-serif" font-size="9.5" fill="#55677a">+ Kakao OAuth2</text>
<text x="259" y="317" text-anchor="middle" font-family="-apple-system,sans-serif" font-size="9.5" fill="#55677a">ProxyHeaders</text>
<text x="259" y="340" text-anchor="middle" font-family="-apple-system,sans-serif" font-size="9" fill="#55677a">REQUEST ROUTING,</text>
<text x="259" y="352" text-anchor="middle" font-family="-apple-system,sans-serif" font-size="9" fill="#55677a">JWT+OAUTH2 AUTH</text>

<line x1="166" y1="382" x2="184" y2="382" stroke="#1c3a52" stroke-width="1.8" marker-end="url(#m3)"/>
<line x1="334" y1="382" x2="352" y2="382" stroke="#1c3a52" stroke-width="1.8" marker-end="url(#m3)"/>

<!-- ===================== FASTAPI APPLICATION ===================== -->
<rect x="352" y="64" width="680" height="636" rx="6" fill="#dbe9f5" stroke="#1c3a52" stroke-width="1.5"/>
<text x="692" y="84" text-anchor="middle" font-family="-apple-system,sans-serif" font-size="13" font-weight="700" fill="#1c3a52">FASTAPI APPLICATION (ASYNC, ML 파이프라인)</text>

<!-- Layer 1: Presentation -->
<rect x="368" y="100" width="648" height="130" rx="6" fill="#eaf3fb" stroke="#7fb2dd" stroke-width="1.3"/>
<text x="382" y="118" font-family="-apple-system,sans-serif" font-size="11.5" font-weight="700" fill="#1c3a52">1. PRESENTATION LAYER (WEB)</text>
<g font-family="-apple-system,sans-serif">
  <rect x="382" y="128" width="209" height="54" rx="6" fill="#cfe4f5" stroke="#5b9bd5" stroke-width="1.2"/>
  <circle cx="398" cy="146" r="7" fill="#3e9b52"/>
  <text x="411" y="150" font-size="11" font-weight="700" fill="#173a5c">ROUTERS</text>
  <text x="398" y="168" font-size="9" fill="#4a6178">9개 (Interview 등 ~18 엔드포인트)</text>

  <rect x="601" y="128" width="209" height="54" rx="6" fill="#cfe4f5" stroke="#5b9bd5" stroke-width="1.2"/>
  <circle cx="617" cy="146" r="7" fill="#5b9bd5"/>
  <text x="630" y="150" font-size="11" font-weight="700" fill="#173a5c">PYDANTIC SCHEMAS</text>
  <text x="617" y="168" font-size="9" fill="#4a6178">DTO — 모델별 요청/응답 스키마</text>

  <rect x="820" y="128" width="196" height="54" rx="6" fill="#cfe4f5" stroke="#5b9bd5" stroke-width="1.2"/>
  <circle cx="836" cy="146" r="7" fill="#5b9bd5"/>
  <text x="849" y="150" font-size="11" font-weight="700" fill="#173a5c">VALIDATION</text>
  <text x="836" y="168" font-size="9" fill="#4a6178">Pydantic 기반 검증</text>
</g>
<text x="692" y="204" text-anchor="middle" font-family="-apple-system,sans-serif" font-size="9.5" fill="#3a5875">HTTP 요청 처리, 9개 라우터 (Interview/Communication/Presentation 등)</text>

<line x1="692" y1="230" x2="692" y2="252" stroke="#1c3a52" stroke-width="1.8" marker-end="url(#m3)"/>

<!-- Layer 2: Service -->
<rect x="368" y="252" width="648" height="130" rx="6" fill="#fdf1e6" stroke="#e5a559" stroke-width="1.3"/>
<text x="382" y="270" font-family="-apple-system,sans-serif" font-size="11.5" font-weight="700" fill="#1c3a52">2. SERVICE LAYER (ML / AI 파이프라인)</text>
<g font-family="-apple-system,sans-serif">
  <rect x="382" y="280" width="209" height="54" rx="6" fill="#fbe0bf" stroke="#e5a559" stroke-width="1.2"/>
  <circle cx="398" cy="298" r="7" fill="#3e9b52"/>
  <text x="411" y="302" font-size="11" font-weight="700" fill="#7a4a12">STT · SCORING</text>
  <text x="398" y="320" font-size="9" fill="#7a5a30">Google/Whisper STT, BERT 채점</text>

  <rect x="601" y="280" width="209" height="54" rx="6" fill="#fbe0bf" stroke="#e5a559" stroke-width="1.2"/>
  <circle cx="617" cy="298" r="7" fill="#e5a559"/>
  <text x="630" y="302" font-size="11" font-weight="700" fill="#7a4a12">EMOTION / LLM</text>
  <text x="617" y="320" font-size="9" fill="#7a5a30">감정분석(Wav2Vec2+SVM), LLM 리포트</text>

  <rect x="820" y="280" width="196" height="54" rx="6" fill="#fbe0bf" stroke="#e5a559" stroke-width="1.2"/>
  <circle cx="836" cy="298" r="7" fill="#e5a559"/>
  <text x="849" y="302" font-size="10.5" font-weight="700" fill="#7a4a12">MODEL LOADER</text>
  <text x="836" y="320" font-size="9" fill="#7a5a30">S3 lazy 다운로드</text>
</g>
<text x="692" y="356" text-anchor="middle" font-family="-apple-system,sans-serif" font-size="9.5" fill="#7a5a30">음성 분석 파이프라인 실행, ~25개 서비스 클래스, 프로바이더 교체 가능(GPT/Watsonx)</text>

<line x1="692" y1="382" x2="692" y2="404" stroke="#1c3a52" stroke-width="1.8" marker-end="url(#m3)"/>

<!-- Layer 3: Domain -->
<rect x="368" y="404" width="648" height="130" rx="6" fill="#eaf7ee" stroke="#6cbf83" stroke-width="1.3"/>
<text x="382" y="422" font-family="-apple-system,sans-serif" font-size="11.5" font-weight="700" fill="#1c3a52">3. DOMAIN LAYER (MODEL)</text>
<g font-family="-apple-system,sans-serif">
  <rect x="382" y="432" width="209" height="54" rx="6" fill="#d3ecda" stroke="#6cbf83" stroke-width="1.2"/>
  <circle cx="398" cy="450" r="7" fill="#3e9b52"/>
  <text x="411" y="454" font-size="11" font-weight="700" fill="#215c33">USER / INTERVIEW</text>
  <text x="398" y="472" font-size="9" fill="#3a7a4d">사용자, 인터뷰 세션/결과</text>

  <rect x="601" y="432" width="209" height="54" rx="6" fill="#d3ecda" stroke="#6cbf83" stroke-width="1.2"/>
  <circle cx="617" cy="450" r="7" fill="#6cbf83"/>
  <text x="630" y="454" font-size="10.5" font-weight="700" fill="#215c33">COMMUNICATION/AUDIO</text>
  <text x="617" y="472" font-size="9" fill="#3a7a4d">발표·스피치 분석 데이터</text>

  <rect x="820" y="432" width="196" height="54" rx="6" fill="#d3ecda" stroke="#6cbf83" stroke-width="1.2"/>
  <circle cx="836" cy="450" r="7" fill="#6cbf83"/>
  <text x="849" y="454" font-size="10.5" font-weight="700" fill="#215c33">COMMUNITY/MINIGAME</text>
  <text x="836" y="472" font-size="9" fill="#3a7a4d">커뮤니티, 카테고리, 이미지</text>
</g>
<text x="692" y="508" text-anchor="middle" font-family="-apple-system,sans-serif" font-size="9.5" fill="#3a7a4d">SQLAlchemy 모델 — 핵심 도메인 객체</text>

<line x1="692" y1="534" x2="692" y2="556" stroke="#1c3a52" stroke-width="1.8" marker-end="url(#m3)" marker-start="url(#m3)"/>

<!-- Layer 4: Persistence -->
<rect x="368" y="556" width="648" height="130" rx="6" fill="#e8f5f3" stroke="#4fa89a" stroke-width="1.3"/>
<text x="382" y="574" font-family="-apple-system,sans-serif" font-size="11.5" font-weight="700" fill="#1c3a52">4. PERSISTENCE LAYER (DATA ACCESS)</text>
<g font-family="-apple-system,sans-serif">
  <rect x="382" y="584" width="313" height="54" rx="6" fill="#cdece7" stroke="#4fa89a" stroke-width="1.2"/>
  <circle cx="398" cy="602" r="7" fill="#3e9b52"/>
  <text x="411" y="606" font-size="11" font-weight="700" fill="#164f45">CRUD FUNCTIONS</text>
  <text x="398" y="624" font-size="9" fill="#2e6f61">엔티티별 raw SQLAlchemy 함수</text>

  <rect x="705" y="584" width="311" height="54" rx="6" fill="#cdece7" stroke="#4fa89a" stroke-width="1.2"/>
  <circle cx="721" cy="602" r="7" fill="#4fa89a"/>
  <text x="734" y="606" font-size="11" font-weight="700" fill="#164f45">CHROMADB CLIENT</text>
  <text x="721" y="624" font-size="9" fill="#2e6f61">ko-sroberta 임베딩, RAG 유사도 검색</text>
</g>
<text x="692" y="660" text-anchor="middle" font-family="-apple-system,sans-serif" font-size="9.5" fill="#2e6f61">비동기 DB 접근 + 벡터 검색</text>

<!-- connectors: service (4 items) via spine, persistence (2 items) fan -->
<line x1="1032" y1="317" x2="1057" y2="317" stroke="#1c3a52" stroke-width="1.6"/>
<line x1="1057" y1="227" x2="1057" y2="407" stroke="#1c3a52" stroke-width="1.6"/>
<line x1="1057" y1="227" x2="1082" y2="227" stroke="#1c3a52" stroke-width="1.6" marker-end="url(#m3)"/>
<line x1="1057" y1="287" x2="1082" y2="287" stroke="#1c3a52" stroke-width="1.6" marker-end="url(#m3)"/>
<line x1="1057" y1="347" x2="1082" y2="347" stroke="#1c3a52" stroke-width="1.6" marker-end="url(#m3)"/>
<line x1="1057" y1="407" x2="1082" y2="407" stroke="#1c3a52" stroke-width="1.6" marker-end="url(#m3)"/>

<line x1="1032" y1="621" x2="1082" y2="588" stroke="#1c3a52" stroke-width="1.6" marker-end="url(#m3)" marker-start="url(#m3)"/>
<line x1="1032" y1="621" x2="1082" y2="655" stroke="#1c3a52" stroke-width="1.6" marker-end="url(#m3)" marker-start="url(#m3)"/>

<!-- ===================== EXTERNAL RESOURCES & INFRASTRUCTURE ===================== -->
<rect x="1082" y="64" width="352" height="636" rx="6" fill="#ffffff" stroke="#1c3a52" stroke-width="1.5"/>
<rect x="1082" y="64" width="352" height="30" rx="6" fill="#e4ecf5"/>
<rect x="1082" y="86" width="352" height="8" fill="#e4ecf5"/>
<text x="1258" y="79" text-anchor="middle" font-family="-apple-system,sans-serif" font-size="11" font-weight="700" fill="#1c3a52">EXTERNAL RESOURCES &amp;</text>
<text x="1258" y="91" text-anchor="middle" font-family="-apple-system,sans-serif" font-size="11" font-weight="700" fill="#1c3a52">INFRASTRUCTURE</text>

<g font-family="-apple-system,sans-serif">
  <rect x="1100" y="203" width="316" height="48" rx="8" fill="#fbf3df" stroke="#92650f" stroke-width="1.4"/>
  <g transform="translate(1112,215)"><rect width="24" height="24" rx="6" fill="#92650f"/><circle cx="12" cy="9" r="4" fill="none" stroke="#fff" stroke-width="1.6"/><path d="M6,20 A6,6 0 0 1 18,20" fill="none" stroke="#fff" stroke-width="1.6"/></g>
  <text x="1146" y="223" font-size="10.5" font-weight="700" fill="#1c3a52">GOOGLE CLOUD STT</text>
  <text x="1146" y="238" font-size="9" fill="#55677a">Speech-to-Text API</text>

  <rect x="1100" y="263" width="316" height="48" rx="8" fill="#fbf3df" stroke="#92650f" stroke-width="1.4"/>
  <g transform="translate(1112,275)"><rect width="24" height="24" rx="6" fill="#92650f"/><path d="M15,5 L8,15 L12,15 L10,23 L19,11 L15,11 Z" fill="#ffffff"/></g>
  <text x="1146" y="283" font-size="10.5" font-weight="700" fill="#1c3a52">OPENAI GPT / WATSONX</text>
  <text x="1146" y="298" font-size="9" fill="#55677a">LLM 리포트 생성 (교체형)</text>

  <rect x="1100" y="323" width="316" height="48" rx="8" fill="#fbf3df" stroke="#92650f" stroke-width="1.4"/>
  <g transform="translate(1112,335)"><rect width="24" height="24" rx="6" fill="#92650f"/><path d="M4,17 L20,17 L16,7 L8,7 Z" fill="none" stroke="#fff" stroke-width="1.6"/></g>
  <text x="1146" y="343" font-size="10.5" font-weight="700" fill="#1c3a52">AWS S3</text>
  <text x="1146" y="358" font-size="9" fill="#55677a">ML 모델 아티팩트 저장 (배포 인프라)</text>

  <rect x="1100" y="383" width="316" height="48" rx="8" fill="#fbf3df" stroke="#92650f" stroke-width="1.4"/>
  <g transform="translate(1112,395)"><rect width="24" height="24" rx="6" fill="#92650f"/><circle cx="12" cy="12" r="6" fill="none" stroke="#fff" stroke-width="1.6"/><text x="12" y="16" text-anchor="middle" font-size="9" fill="#fff" font-weight="700">K</text></g>
  <text x="1146" y="403" font-size="10.5" font-weight="700" fill="#1c3a52">KAKAO OAUTH2</text>
  <text x="1146" y="418" font-size="9" fill="#55677a">Auth Provider (소셜 로그인)</text>

  <rect x="1100" y="564" width="316" height="48" rx="8" fill="#eafbf1" stroke="#3F8624" stroke-width="1.4"/>
  <g transform="translate(1112,576)">
    <rect width="24" height="24" rx="6" fill="#3F8624"/>
    <ellipse cx="12" cy="7" rx="6" ry="2.2" fill="none" stroke="#ffffff" stroke-width="1.4"/>
    <path d="M6,7 L6,17 A6,2.2 0 0 0 18,17 L18,7" fill="none" stroke="#ffffff" stroke-width="1.4"/>
  </g>
  <text x="1146" y="584" font-size="10.5" font-weight="700" fill="#1c3a52">MYSQL</text>
  <text x="1146" y="599" font-size="9" fill="#55677a">Primary RDBMS (관계형 데이터)</text>

  <rect x="1100" y="631" width="316" height="48" rx="8" fill="#eafbf1" stroke="#3F8624" stroke-width="1.4"/>
  <g transform="translate(1112,643)">
    <rect width="24" height="24" rx="6" fill="#3F8624"/>
    <ellipse cx="12" cy="7" rx="6" ry="2.2" fill="none" stroke="#ffffff" stroke-width="1.4"/>
    <path d="M6,7 L6,17 A6,2.2 0 0 0 18,17 L18,7" fill="none" stroke="#ffffff" stroke-width="1.4"/>
  </g>
  <text x="1146" y="651" font-size="10.5" font-weight="700" fill="#1c3a52">CHROMADB</text>
  <text x="1146" y="666" font-size="9" fill="#55677a">Vector DB (RAG 임베딩 검색)</text>
</g>

<!-- ===================== BOTTOM ===================== -->
<rect x="16" y="756" width="1418" height="34" rx="6" fill="#ffffff" stroke="#1c3a52" stroke-width="1.3"/>
<text x="725" y="778" text-anchor="middle" font-family="-apple-system,sans-serif" font-size="11.5" fill="#1c3a52"><tspan font-weight="700">KEY ARCHITECTURAL PRINCIPLES: </tspan>JWT + OAuth2 · Pluggable LLM Provider · RAG(ChromaDB) · Async SQLAlchemy · S3 Lazy Model Loading</text>
</svg>
